<?xml version="1.0" encoding="UTF-8" standalone="no"?><!DOCTYPE svg PUBLIC "-//W3C//DTD SVG 1.1//EN" "http://www.w3.org/Graphics/SVG/1.1/DTD/svg11.dtd"><svg width="100%" height="100%" viewBox="0 0 29 29" version="1.1" xmlns="http://www.w3.org/2000/svg" xmlns:xlink="http://www.w3.org/1999/xlink" xml:space="preserve" style="fill-rule:evenodd;clip-rule:evenodd;stroke-miterlimit:10;"><path d="M19.668,14.343c0,-2.94 -2.384,-5.324 -5.325,-5.324c-2.94,0 -5.324,2.384 -5.324,5.324c0,2.941 2.384,5.325 5.324,5.325c2.941,0 5.325,-2.384 5.325,-5.325Z" style="fill:none;stroke:#fff;stroke-width:1px;"/><path d="M7.687,20.999c3.994,-0.79 6.656,2.663 6.656,2.663c0,0 2.663,-3.453 6.656,-2.663c-0.789,-3.994 2.663,-6.656 2.663,-6.656c0,0 -3.453,-2.662 -2.663,-6.656c0,0 -3.993,0.666 -6.656,-2.662c-2.662,3.328 -6.656,2.662 -6.656,2.662c0,0 0.665,3.994 -2.662,6.656c3.328,2.663 2.662,6.656 2.662,6.656Z" style="fill:none;stroke:#fff;stroke-width:1px;"/></svg>