<?xml version="1.0" encoding="UTF-8" standalone="no"?><!DOCTYPE svg PUBLIC "-//W3C//DTD SVG 1.1//EN" "http://www.w3.org/Graphics/SVG/1.1/DTD/svg11.dtd"><svg width="100%" height="100%" viewBox="0 0 24 24" version="1.1" xmlns="http://www.w3.org/2000/svg" xmlns:xlink="http://www.w3.org/1999/xlink" xml:space="preserve" style="fill-rule:evenodd;clip-rule:evenodd;stroke-linejoin:round;stroke-miterlimit:1.41421;"><path id="Warning-Circle-Icon" d="M11.5,23c-6.351,0 -11.5,-5.148 -11.5,-11.5c0,-6.351 5.149,-11.5 11.5,-11.5c6.351,0 11.5,5.149 11.5,11.5c0,6.352 -5.149,11.5 -11.5,11.5Zm1.5,-16.5c0,-0.828 -0.672,-1.5 -1.5,-1.5c-0.828,0 -1.5,0.672 -1.5,1.5l0,6c0,0.829 0.672,1.5 1.5,1.5c0.828,0 1.5,-0.671 1.5,-1.5l0,-6Zm-1.5,8.5c-0.828,0 -1.5,0.672 -1.5,1.5c0,0.829 0.672,1.5 1.5,1.5c0.828,0 1.5,-0.671 1.5,-1.5c0,-0.828 -0.672,-1.5 -1.5,-1.5Z" style="fill:#fff;"/></svg>