<?xml version="1.0" encoding="UTF-8" standalone="no"?><!DOCTYPE svg PUBLIC "-//W3C//DTD SVG 1.1//EN" "http://www.w3.org/Graphics/SVG/1.1/DTD/svg11.dtd"><svg width="100%" height="100%" viewBox="0 0 19 19" version="1.1" xmlns="http://www.w3.org/2000/svg" xmlns:xlink="http://www.w3.org/1999/xlink" xml:space="preserve" style="fill-rule:evenodd;clip-rule:evenodd;stroke-linejoin:round;stroke-miterlimit:1.41421;"><g><path d="M9.39,15.259c0.649,0 1.174,0.525 1.174,1.174l0,1.173c0,0.649 -0.525,1.174 -1.174,1.174c-0.648,0 -1.174,-0.525 -1.174,-1.174l0,-1.173c0,-0.649 0.526,-1.174 1.174,-1.174Zm0,-11.738c-0.648,0 -1.174,-0.525 -1.174,-1.173l0,-1.174c0,-0.649 0.526,-1.174 1.174,-1.174c0.649,0 1.174,0.525 1.174,1.174l0,1.174c0,0.648 -0.525,1.173 -1.174,1.173Zm8.216,4.695c0.649,0 1.174,0.526 1.174,1.174c0,0.649 -0.525,1.174 -1.174,1.174l-1.173,0c-0.649,0 -1.174,-0.525 -1.174,-1.174c0,-0.648 0.525,-1.174 1.174,-1.174l1.173,0Zm-14.085,1.174c0,0.649 -0.525,1.174 -1.173,1.174l-1.174,0c-0.649,0 -1.174,-0.525 -1.174,-1.174c0,-0.648 0.525,-1.174 1.174,-1.174l1.174,0c0.648,0 1.173,0.526 1.173,1.174Zm11.679,4.15l0.829,0.83c0.459,0.458 0.459,1.201 0,1.659c-0.458,0.459 -1.201,0.459 -1.659,0l-0.83,-0.829c-0.458,-0.459 -0.458,-1.202 0,-1.66c0.458,-0.458 1.201,-0.458 1.66,0Zm-11.619,-8.3l-0.83,-0.83c-0.459,-0.458 -0.459,-1.201 0,-1.659c0.458,-0.459 1.201,-0.459 1.659,0l0.83,0.83c0.459,0.458 0.459,1.201 0,1.659c-0.458,0.459 -1.201,0.459 -1.659,0l0,0Zm11.619,0c-0.459,0.459 -1.202,0.459 -1.66,0c-0.458,-0.458 -0.458,-1.201 0,-1.659l0.83,-0.83c0.458,-0.459 1.201,-0.459 1.659,0c0.459,0.458 0.459,1.201 0,1.659l-0.829,0.83Zm-11.619,8.3c0.458,-0.458 1.201,-0.458 1.659,0c0.459,0.458 0.459,1.201 0,1.66l-0.83,0.829c-0.458,0.459 -1.201,0.459 -1.659,0c-0.459,-0.458 -0.459,-1.201 0,-1.659l0.83,-0.83l0,0Z" style="fill:#fff;fill-rule:nonzero;"/><path d="M9.39,4.695c-2.593,0 -4.695,2.102 -4.695,4.695c0,2.593 2.102,4.695 4.695,4.695c2.593,0 4.695,-2.102 4.695,-4.695c0,-2.593 -2.102,-4.695 -4.695,-4.695Zm0,7.629c-1.62,0 -2.934,-1.314 -2.934,-2.934c0,-1.62 1.314,-2.934 2.934,-2.934c1.62,0 2.934,1.314 2.934,2.934c0,1.62 -1.314,2.934 -2.934,2.934Z" style="fill:#fff;fill-rule:nonzero;"/></g></svg>